<?xml version="1.0" standalone="no"?>
<!DOCTYPE svg PUBLIC "-//W3C//DTD SVG 20010904//EN"
 "http://www.w3.org/TR/2001/REC-SVG-20010904/DTD/svg10.dtd">
<svg version="1.0" xmlns="http://www.w3.org/2000/svg"
 width="574.000000pt" height="185.000000pt" viewBox="0 0 574.000000 185.000000"
 preserveAspectRatio="xMidYMid meet">

<g transform="translate(0.000000,185.000000) scale(0.100000,-0.100000)"
fill="#ffffff" stroke="none">
<path d="M10 1834 c0 -3 13 -23 29 -43 15 -20 58 -81 93 -137 103 -159 52
-145 522 -144 256 1 412 -3 429 -9 35 -14 46 -44 38 -101 -7 -44 -38 -110 -52
-110 -4 0 -15 -8 -25 -17 -16 -16 -50 -18 -370 -21 -275 -2 -355 -6 -363 -16
-10 -12 -32 -90 -76 -266 -44 -177 -80 -298 -87 -294 -4 3 -5 -1 -3 -9 3 -7
-13 -82 -35 -167 -23 -84 -37 -156 -33 -161 12 -11 20 -11 263 -10 l225 1 14
58 c7 31 38 149 68 262 30 113 57 216 60 230 11 50 12 50 242 50 329 0 433 19
522 98 48 42 69 95 130 322 74 273 69 356 -25 426 -81 61 -47 59 -838 62 -401
1 -728 0 -728 -4z"/>
<path d="M1771 1798 c-6 -24 -24 -95 -40 -158 l-29 -115 284 -3 c156 -1 284
-6 284 -10 0 -4 -7 -35 -16 -67 -9 -33 -20 -76 -24 -95 -12 -49 -131 -496
-160 -600 -16 -56 -110 -412 -110 -416 0 -2 112 -4 249 -4 l249 0 6 28 c3 15
19 77 35 137 17 61 48 178 70 260 21 83 60 229 86 325 26 96 58 213 70 260 13
47 28 104 34 128 l12 42 232 0 c128 0 238 4 245 9 14 8 102 301 95 314 -2 4
-354 7 -782 7 l-778 0 -12 -42z"/>
<path d="M1690 1320 c-5 -9 -18 -54 -30 -100 -11 -47 -23 -93 -26 -102 -5 -17
9 -18 199 -18 l204 0 26 98 c15 53 28 105 29 114 3 17 -13 18 -195 20 -171 3
-200 1 -207 -12z"/>
<path d="M1607 1032 c-6 -9 -30 -95 -62 -217 -14 -55 -29 -107 -32 -115 -3 -8
-7 -22 -8 -30 -1 -8 -21 -86 -43 -172 -23 -86 -42 -159 -42 -162 0 -3 92 -6
205 -6 l204 0 11 43 c6 23 15 58 20 77 10 33 47 174 119 452 17 65 31 122 31
127 0 11 -397 14 -403 3z"/>
<path d="M4949 177 c0 -7 -3 -42 -7 -79 -7 -59 -6 -67 10 -71 12 -4 25 5 40
26 12 18 25 34 28 37 3 3 18 24 33 48 26 40 26 42 7 42 -14 0 -31 -16 -52 -50
-17 -27 -32 -50 -34 -50 -2 0 0 22 3 48 4 39 2 50 -11 55 -9 4 -16 1 -17 -6z"/>
<path d="M5173 131 c-21 -31 -41 -58 -44 -61 -4 -3 -9 -15 -13 -27 -6 -19 -4
-22 11 -16 10 4 24 14 30 24 15 21 49 18 45 -3 -3 -19 27 -33 33 -15 2 6 5 42
7 79 3 57 1 67 -14 71 -12 4 -28 -11 -55 -52z m33 -27 c-4 -9 -9 -15 -11 -12
-3 3 -3 13 1 22 4 9 9 15 11 12 3 -3 3 -13 -1 -22z"/>
<path d="M1384 118 c-55 -86 -56 -86 -45 -92 5 -4 22 5 37 19 15 14 34 25 43
25 14 0 14 -2 1 -10 -11 -7 -11 -10 -2 -10 7 0 11 -4 8 -9 -3 -5 1 -12 9 -15
19 -7 22 1 29 87 5 64 4 67 -17 67 -17 0 -33 -16 -63 -62z m46 -14 c0 -8 -5
-12 -10 -9 -6 4 -8 11 -5 16 9 14 15 11 15 -7z"/>
<path d="M1606 158 c-21 -29 -20 -34 4 -58 25 -25 17 -42 -18 -38 -19 2 -28
-2 -30 -14 -5 -26 68 -25 91 0 23 25 21 41 -4 69 -23 23 -20 27 24 35 33 5 23
23 -15 26 -28 2 -40 -2 -52 -20z"/>
<path d="M1807 162 c-23 -25 -21 -48 5 -66 18 -13 20 -18 10 -28 -7 -7 -22
-13 -34 -13 -12 0 -23 -6 -26 -13 -3 -10 7 -12 39 -10 35 2 46 8 58 30 14 25
14 29 -7 51 -29 31 -28 37 8 37 20 0 30 5 30 15 0 22 -63 20 -83 -3z"/>
<path d="M1991 123 c-12 -32 -26 -66 -31 -75 -8 -15 -6 -18 12 -19 13 0 33 -2
45 -3 24 -3 51 9 42 18 -3 3 -18 7 -32 8 -15 1 -27 3 -27 4 0 20 18 34 41 34
19 0 29 5 29 15 0 9 -9 15 -21 15 -14 0 -19 5 -17 17 2 12 13 17 32 18 16 0
31 6 33 13 3 8 -9 12 -40 12 l-46 0 -20 -57z"/>
<path d="M2206 164 c-22 -21 -20 -47 4 -69 26 -23 9 -48 -26 -39 -17 4 -24 2
-24 -9 0 -20 39 -29 69 -14 36 18 45 53 21 77 -27 27 -25 38 7 42 14 2 28 9
31 16 6 18 -63 15 -82 -4z"/>
<path d="M2407 162 c-23 -25 -21 -48 5 -66 26 -18 16 -33 -25 -38 -39 -4 -34
-22 7 -26 21 -2 40 3 50 13 22 23 20 62 -4 75 -26 14 -17 30 16 30 15 0 24 6
24 15 0 22 -53 19 -73 -3z"/>
<path d="M2605 158 c-30 -27 -44 -90 -25 -113 15 -18 70 -20 92 -3 43 36 62
100 36 126 -20 20 -74 14 -103 -10z m75 -33 c0 -15 -12 -38 -26 -52 -25 -25
-27 -25 -40 -9 -7 10 -10 25 -7 34 18 52 73 72 73 27z"/>
<path d="M2818 106 c-21 -60 -24 -75 -13 -80 9 -3 20 7 31 29 19 40 34 37 34
-6 0 -44 24 -31 28 15 2 20 12 46 23 57 29 29 10 59 -39 59 -37 0 -37 0 -64
-74z m82 33 c0 -11 -28 -24 -36 -17 -2 3 -2 12 2 21 6 16 34 12 34 -4z"/>
<path d="M3054 163 c-3 -10 -17 -44 -30 -75 -22 -55 -23 -58 -4 -58 13 0 24
14 38 52 34 92 35 98 17 98 -8 0 -18 -8 -21 -17z"/>
<path d="M3188 105 c-30 -48 -43 -77 -36 -81 6 -4 21 5 33 19 25 33 55 36 55
6 0 -14 5 -19 17 -17 14 3 18 17 21 76 4 70 3 72 -20 72 -18 0 -34 -17 -70
-75z m52 0 c0 -8 -4 -15 -10 -15 -5 0 -7 7 -4 15 4 8 8 15 10 15 2 0 4 -7 4
-15z"/>
<path d="M3549 153 c-6 -16 -19 -49 -29 -76 -10 -26 -15 -49 -12 -50 6 -3 59
-2 85 2 19 3 4 21 -18 21 -27 0 -28 1 -19 24 4 10 18 16 35 16 36 0 40 27 4
32 -33 4 -18 28 20 31 50 4 42 27 -9 27 -41 0 -48 -3 -57 -27z"/>
<path d="M3758 169 c-22 -13 -24 -67 -3 -75 27 -11 16 -33 -17 -36 -48 -5 -48
-28 0 -28 63 0 93 48 52 85 -24 21 -18 35 16 35 15 0 24 6 24 15 0 17 -45 20
-72 4z"/>
<path d="M3927 106 c-14 -41 -23 -77 -19 -80 12 -13 24 -5 33 24 8 22 17 30
35 30 34 0 66 35 62 68 -3 24 -8 27 -44 30 l-42 3 -25 -75z m83 34 c0 -11 -30
-34 -36 -27 -12 11 7 46 22 40 7 -3 14 -9 14 -13z"/>
<path d="M4159 150 c-26 -25 -30 -36 -27 -72 3 -42 4 -43 42 -46 31 -3 44 2
67 24 56 54 47 124 -17 124 -26 0 -43 -8 -65 -30z m79 -27 c2 -15 -7 -32 -24
-48 -23 -22 -30 -24 -41 -12 -11 11 -11 20 -3 43 19 48 62 59 68 17z"/>
<path d="M4377 105 c-25 -71 -25 -75 -7 -75 12 0 21 10 25 31 8 36 30 33 30
-4 -1 -19 4 -27 17 -27 14 0 18 8 18 34 0 18 7 39 16 46 8 8 14 25 12 39 -3
23 -8 26 -43 29 l-41 3 -27 -76z m60 18 c-17 -18 -22 -8 -11 22 5 12 10 13 17
6 8 -8 6 -16 -6 -28z"/>
<path d="M4595 170 c-3 -6 3 -14 14 -18 20 -7 20 -8 -3 -65 -23 -55 -23 -57
-5 -57 11 0 22 8 25 17 3 10 12 31 20 46 7 16 14 35 14 43 0 8 10 14 24 14 13
0 26 7 30 15 4 12 -5 15 -54 15 -32 0 -62 -5 -65 -10z"/>
<path d="M4788 105 c-25 -69 -26 -93 -2 -77 8 6 64 134 64 147 0 3 -8 5 -18 5
-12 0 -24 -20 -44 -75z"/>
</g>
</svg>
