<?xml version="1.0" encoding="UTF-8"?><svg id="Camada_1" xmlns="http://www.w3.org/2000/svg" viewBox="0 0 192.6 94.28"><defs><style>.cls-1{fill:#689b38;}.cls-2{fill:#749d3f;}.cls-3{fill:#f6f6f6;}.cls-4{fill:#11301c;}.cls-5{fill:#b4d17d;}.cls-6{fill:#15331d;}</style></defs><g><path class="cls-5" d="M142.72,29.61c.2-.57,.4-1.15,.6-1.72,.1-.02,.14-.08,.14-.18q.76-3.42,4.27-3.42c7.05,0,14.1,0,21.15,0,1.71,0,1.79,.14,1.27,1.76-.6,1.91-1.19,3.82-1.74,5.74-.28,.97-.94,1.39-1.84,1.34-6.06-.3-12.13-.06-18.2-.12-1.58-.02-3.16,.2-4.74,.17-.89-.01-2-.04-1.69-1.51,.28-.13,.51-.29,.44-.66,.02-.2,.04-.39,.05-.59,.32-.19,.29-.51,.29-.82Z"/><path class="cls-5" d="M175.88,32.68c-.75,.98-1.81,.51-2.73,.52-3.5,.06-3.2,.06-2.21-2.91,.54-1.62,1.03-3.27,1.43-4.93,.2-.81,.64-1.06,1.37-1.07,1.44,0,2.88,0,4.32,0,.06,.7-.07,1.35-.29,2.03-.68,2.1-1.27,4.23-1.89,6.35Z"/><path class="cls-5" d="M183.06,32.94c-.09,.03-.18,.07-.26,.1-1.77,0-3.54,.01-5.31,.02l-.09-.08c.35-2.72,1.55-5.2,2.17-7.84,.14-.38,.22-.81,.73-.89,.28,0,.55,0,.83,0,1.32,.02,2.65,.04,3.97,.06,.07,.07,.15,.14,.22,.22l.05,.05c-.82,2.78-1.99,5.47-2.32,8.38Z"/><path class="cls-5" d="M191.01,29.88c-.02,.19-.03,.38-.05,.58-.57,.53-.67,1.23-.74,1.95-.13,.21-.26,.42-.39,.63-1.78-.01-3.55-.03-5.33-.04l-.03-.03c.06-.32,.1-.64,.18-.95,.63-2.4,1.64-4.69,2.01-7.17,.22-.15,.45-.31,.67-.46,1.74,.37,3.52-.22,5.27,.2-.17,.65-.34,1.29-.52,1.94-.7,1.01-.87,2.18-1.07,3.34Z"/><path class="cls-5" d="M128.74,27.19c-.36-.08-.58-.31-.65-.68,.14-.64,.28-1.28,.42-1.93,.67-.48,1.47-.19,2.2-.35,.74,0,1.48,0,2.22,0,.47,0,.95,0,1.42,0,2.6,.04,5.2,.08,7.8,.12,0,.25,0,.5,0,.75-.36,.93-.73,1.87-1.09,2.8-.19,.02-.38,.03-.57,.05-1.41-1.47-1.65-1.51-3.11-.08-.75,.73-1.4,.69-2.02,.01-.96-1.05-1.84-1.13-2.78-.01-.7,.83-1.39,.77-2.1-.01-.45-.5-1.03-.77-1.73-.68Z"/><path class="cls-5" d="M139.33,33.23c-3.76,0-7.51,.01-11.27-.01-.61,0-1.47,.32-1.73-.47-.26-.81,.04-1.63,.76-2.22,.21-.17,.35-.42,.52-.64,.78-.77,1.54-.51,2.16,.16,.93,.99,1.81,.84,2.62-.06,.79-.87,1.54-.79,2.26-.03,.84,.89,1.65,1.05,2.45,.05,.96-1.2,1.81-1.05,2.66,.1,.11,.14,.29,.23,.44,.34-.02,.45-.05,.9-.07,1.35-.53,.33-.42,1.02-.81,1.43Z"/><path class="cls-2" d="M185.33,24.51c-.08-.07-.15-.14-.22-.22,.08,.07,.15,.14,.22,.22Z"/><path class="cls-1" d="M143.45,27.71c0,.1-.04,.16-.14,.18,.03-.08,.07-.13,.14-.18Z"/></g><path class="cls-4" d="M30.72,.04c8.98,0,17.95-.02,26.93,.01,2.62,.01,5.23,.14,7.7,1.27,4.56,2.08,6.75,6.18,5.53,11.55-1.33,5.89-2.95,11.72-4.66,17.51-1.4,4.75-5.19,6.99-9.66,8.3-2.62,.76-5.3,.89-8.01,.88-5.25-.02-10.51,.08-15.76,0-2.01-.03-3.01,.64-3.51,2.68-1.8,7.36-3.81,14.66-5.68,22-.36,1.4-.92,2.05-2.51,2.03-5.54-.09-11.09-.02-16.64-.03-2.38,0-2.76-.41-2.16-2.7,1.64-6.27,3.38-12.52,5.04-18.78,1.27-4.79,2.54-9.57,3.68-14.39,.96-4.07,1.35-4.47,5.52-4.48,7.95-.01,15.91-.16,23.86,0,5.82,.12,8.17-4.41,7.78-9.06-.09-1.13-.68-1.89-1.78-2.24-1.46-.47-2.92-.83-4.49-.82-8.98,.04-17.99-.43-26.92,.22-5.01,.37-7.77-1.28-9.93-5.38C3.84,6.31,2.15,4.26,.69,2.09,.37,1.62-.2,1.16,.07,.54,.41-.25,1.21,.06,1.82,.06c9.63-.02,19.27-.01,28.9-.02Z"/><path class="cls-4" d="M111.5,2.87c10.44,0,20.87,0,31.31,0,2.96,0,3,.08,2.16,2.99-.79,2.73-1.63,5.44-2.3,8.2-.45,1.82-1.27,2.63-3.31,2.62-5.76-.03-11.52-.3-17.28,.17-1.34,.11-1.96,.73-2.27,1.92-4.27,16.2-8.55,32.39-12.8,48.6-.29,1.11-.84,1.62-1.96,1.62-5.77,0-11.53,.03-17.3,0-1.75,0-2.58-.5-1.99-2.66,3.38-12.28,6.59-24.6,9.86-36.91,.9-3.38,1.81-6.75,2.68-10.14,.62-2.42,.4-2.7-2.04-2.71-6.64-.01-13.28-.06-19.92,.04-2.07,.03-2.54-.59-1.98-2.55,.91-3.22,1.65-6.49,2.42-9.75,.37-1.58,1.56-1.48,2.75-1.48,10.66,0,21.31,0,31.97,0v.03Z"/><path class="cls-4" d="M67.77,43.62c.04-.29,.08-.58,.12-.88,.98-1.29,1.04-2.88,1.4-4.37,.59-.07,1.18-.14,1.76-.21,4.36,.39,8.74,.14,13.1,.13,1.93,0,2.63,.4,2.06,2.49-2.05,7.51-3.97,15.05-5.95,22.58-.09,.35-.24,.69-.33,1.04q-1.06,4.32-5.4,4.32c-3.72,0-7.44-.06-11.15,.04-1.65,.04-2.01-.46-1.57-2.02,1.65-5.88,3.22-11.79,4.81-17.7,.13-.48,.18-.99,.27-1.48,.05-.44,.11-.87,.16-1.31,.66-.76,.85-1.65,.71-2.63Z"/><path class="cls-6" d="M70.84,33.54c.04-.44,.08-.87,.13-1.31,1.28-1.53,1.13-3.54,1.76-5.28,.45-1.23,1.03-1.85,2.49-1.82,4.43,.1,8.87,.08,13.3,0,1.79-.03,2.16,.66,1.68,2.25-.62,2.01-1.19,4.04-1.7,6.08-.28,1.12-.86,1.49-2,1.48-4.65-.05-9.31-.04-13.96,.02-1.08,.01-1.66-.32-1.7-1.42Z"/><g><path class="cls-3" d="M133.37,47.04h-5.97l1.21-7.26h20.33l-1.21,7.26h-6.05l-3.67,21.96h-8.31l3.67-21.96Z"/><path class="cls-3" d="M152.03,39.78h10.31c6.39,0,9.35,2.88,9.35,7.56,0,3.88-2,7.51-5.3,9.39l4.63,12.27h-9.14l-3.21-10.31h-1.5l-1.71,10.31h-8.31l4.88-29.22Zm7.64,12.15c2.13,0,3.38-1.38,3.38-3.09,0-1.34-.83-2.09-2.5-2.09h-1.38l-.88,5.18h1.38Z"/><path class="cls-3" d="M178.41,39.78h8.31l-4.88,29.22h-8.31l4.88-29.22Z"/></g><g><path class="cls-5" d="M5.73,91.87l-1.05,2.2H1.34l5.89-11.49h3.45l2.05,11.49h-3.23l-.33-2.2h-3.45Zm2.73-5.91l-1.51,3.3h1.9l-.39-3.3Z"/><path class="cls-5" d="M16.39,90.15c.23,.61,.79,1.13,1.38,1.13s.82-.26,.82-.57c0-1.03-3.92-1.2-3.92-4.27,0-2.45,1.94-4.07,4.61-4.07s3.3,1.89,3.46,2.79l-2.92,1.21c-.15-.48-.33-1.05-1.12-1.05-.44,0-.72,.26-.72,.59,0,1.15,3.99,1.22,3.99,4.15,0,2.31-1.79,4.22-4.79,4.22-2.71,0-3.58-1.99-3.74-2.79l2.96-1.35Z"/><path class="cls-5" d="M25.36,90.15c.23,.61,.79,1.13,1.38,1.13s.82-.26,.82-.57c0-1.03-3.92-1.2-3.92-4.27,0-2.45,1.94-4.07,4.61-4.07s3.3,1.89,3.46,2.79l-2.92,1.21c-.15-.48-.33-1.05-1.12-1.05-.44,0-.72,.26-.72,.59,0,1.15,3.99,1.22,3.99,4.15,0,2.31-1.79,4.22-4.79,4.22-2.71,0-3.58-1.99-3.74-2.79l2.96-1.35Z"/><path class="cls-5" d="M33.62,82.58h6.44l-.48,2.86h-3.17l-.23,1.41h2.68l-.48,2.84h-2.68l-.26,1.53h3.3l-.48,2.86h-6.57l1.92-11.49Z"/><path class="cls-5" d="M42.51,90.15c.23,.61,.79,1.13,1.38,1.13s.82-.26,.82-.57c0-1.03-3.92-1.2-3.92-4.27,0-2.45,1.94-4.07,4.61-4.07s3.3,1.89,3.46,2.79l-2.92,1.21c-.15-.48-.33-1.05-1.12-1.05-.44,0-.72,.26-.72,.59,0,1.15,3.99,1.22,3.99,4.15,0,2.31-1.79,4.22-4.79,4.22-2.71,0-3.58-1.99-3.74-2.79l2.96-1.35Z"/><path class="cls-5" d="M51.48,90.15c.23,.61,.79,1.13,1.38,1.13s.82-.26,.82-.57c0-1.03-3.92-1.2-3.92-4.27,0-2.45,1.94-4.07,4.61-4.07s3.3,1.89,3.46,2.79l-2.92,1.21c-.15-.48-.33-1.05-1.12-1.05-.44,0-.72,.26-.72,.59,0,1.15,3.99,1.22,3.99,4.15,0,2.31-1.79,4.22-4.79,4.22-2.71,0-3.58-1.99-3.74-2.79l2.96-1.35Z"/><path class="cls-5" d="M58.12,89.21c0-3.73,3.05-6.85,7.29-6.85,3.38,0,5.3,2.2,5.3,5.06,0,3.76-3.05,6.86-7.29,6.86-3.37,0-5.3-2.18-5.3-5.07Zm3.46-.39c0,1.44,.87,2.48,2.33,2.48,1.91,0,3.35-1.54,3.35-3.46,0-1.41-.87-2.48-2.35-2.48-1.89,0-3.33,1.54-3.33,3.46Z"/><path class="cls-5" d="M72.92,82.58h4.06c2.51,0,3.68,1.13,3.68,2.97,0,1.53-.79,2.96-2.09,3.69l1.82,4.83h-3.6l-1.26-4.06h-.59l-.67,4.06h-3.27l1.92-11.49Zm3,4.78c.84,0,1.33-.54,1.33-1.22,0-.53-.33-.82-.99-.82h-.54l-.34,2.04h.54Z"/><path class="cls-5" d="M83.3,82.58h3.27l-1.92,11.49h-3.27l1.92-11.49Z"/><path class="cls-5" d="M90.05,91.87l-1.05,2.2h-3.33l5.89-11.49h3.45l2.05,11.49h-3.23l-.33-2.2h-3.45Zm2.73-5.91l-1.51,3.3h1.91l-.39-3.3Z"/><path class="cls-5" d="M103.3,82.58h6.44l-.48,2.86h-3.17l-.23,1.41h2.68l-.48,2.84h-2.68l-.26,1.53h3.3l-.48,2.86h-6.57l1.92-11.49Z"/><path class="cls-5" d="M112.18,90.15c.23,.61,.79,1.13,1.38,1.13s.82-.26,.82-.57c0-1.03-3.92-1.2-3.92-4.27,0-2.45,1.94-4.07,4.61-4.07s3.3,1.89,3.46,2.79l-2.92,1.21c-.15-.48-.33-1.05-1.12-1.05-.44,0-.72,.26-.72,.59,0,1.15,3.99,1.22,3.99,4.15,0,2.31-1.79,4.22-4.79,4.22-2.71,0-3.58-1.99-3.74-2.79l2.95-1.35Z"/><path class="cls-5" d="M120.45,82.58h4.43c2.14,0,3.37,1.41,3.37,3.14,0,2.63-1.94,4.55-4.55,4.55h-1.26l-.64,3.81h-3.27l1.92-11.49Zm3.14,4.94c.8,0,1.26-.61,1.26-1.31,0-.53-.33-.89-.87-.89h-.72l-.36,2.2h.69Z"/><path class="cls-5" d="M128.42,89.21c0-3.73,3.05-6.85,7.29-6.85,3.38,0,5.3,2.2,5.3,5.06,0,3.76-3.05,6.86-7.29,6.86-3.37,0-5.3-2.18-5.3-5.07Zm3.47-.39c0,1.44,.87,2.48,2.33,2.48,1.9,0,3.35-1.54,3.35-3.46,0-1.41-.87-2.48-2.35-2.48-1.89,0-3.33,1.54-3.33,3.46Z"/><path class="cls-5" d="M143.22,82.58h4.06c2.51,0,3.68,1.13,3.68,2.97,0,1.53-.79,2.96-2.09,3.69l1.82,4.83h-3.6l-1.26-4.06h-.59l-.67,4.06h-3.27l1.92-11.49Zm3.01,4.78c.84,0,1.33-.54,1.33-1.22,0-.53-.33-.82-.98-.82h-.54l-.34,2.04h.54Z"/><path class="cls-5" d="M154.49,85.43h-2.35l.48-2.86h8l-.48,2.86h-2.38l-1.45,8.64h-3.27l1.45-8.64Z"/><path class="cls-5" d="M161.83,82.58h3.27l-1.92,11.49h-3.27l1.92-11.49Z"/><path class="cls-5" d="M168.37,94.07l-2.25-11.49h3.58l1.08,7.72,3.66-7.72h3.58l-6.09,11.49h-3.56Z"/><path class="cls-5" d="M179.15,91.87l-1.05,2.2h-3.33l5.89-11.49h3.45l2.05,11.49h-3.23l-.33-2.2h-3.45Zm2.73-5.91l-1.51,3.3h1.91l-.39-3.3Z"/></g></svg>